# Blender v2.79 (sub 0) OBJ File: ''
# www.blender.org
mtllib untitled.mtl
o Cube_Cube.001
v 15.112263 7.1202320 76.854355 # 1
v 15.112263 67.120232 76.854355 # 2
v 15.112263 7.1202320 16.854351 # 3
v 15.112263 67.120232 16.854351 # 4
v 75.112259 7.1202320 76.854355 # 5
v 75.112259 67.120232 76.854355 # 6
v 75.112259 7.1202320 16.854351 # 7
v 75.112259 67.120232 16.854351 # 8
vn -1.0000 0.0000 0.0000
vn 0.0000 0.0000 -1.0000
vn 1.0000 0.0000 0.0000
vn 0.0000 0.0000 1.0000
vn 0.0000 -1.0000 0.0000
vn 0.0000 1.0000 0.0000
usemtl None
s off
f 1//1 2//1 4//1 3//1
f 3//2 4//2 8//2 7//2
f 7//3 8//3 6//3 5//3
f 5//4 6//4 2//4 1//4
f 3//5 7//5 5//5 1//5
f 8//6 4//6 2//6 6//6
